<svg id="Layer_1" data-name="Layer 1" xmlns="http://www.w3.org/2000/svg" viewBox="0 0 939.24 254.16"><defs><style>.cls-1{fill:#f2f2f2;}</style></defs><path class="cls-1" d="M42.38,163.58V28.47H62.1v117H109v18.08Z" transform="translate(-42.38 -25.92)"/><path class="cls-1" d="M122.71,163.58V28.47h19.71V163.58Z" transform="translate(-42.38 -25.92)"/><path class="cls-1" d="M212.53,163.58,158.12,28.47H179.3L218.55,129.8,257.81,28.47h20.81L224.4,163.58Z" transform="translate(-42.38 -25.92)"/><path class="cls-1" d="M294.5,163.58V28.47h19.72V163.58Z" transform="translate(-42.38 -25.92)"/><path class="cls-1" d="M465.39,130.17c-13.7,23.55-35.42,36-62.44,36-37.43,0-68.29-33.59-68.29-69.56,0-40.71,32.14-70.65,68.47-70.65,25.56,0,49.48,11.68,63.17,37.06H442.56c-10.22-11.87-22.09-19-38-19-28.3,0-50.21,23.92-50.21,50.76,0,28.3,21.36,53.31,49.11,53.31,14.06,0,26.66-5.48,37.61-17.89Z" transform="translate(-42.38 -25.92)"/><path class="cls-1" d="M564.89,163.58l-15-39.8H501.35l-15,39.8H465.57l51.3-135.11h17.71l51.3,135.11ZM526,54h-.37L508.29,105.7h34.87Z" transform="translate(-42.38 -25.92)"/><path class="cls-1" d="M610.71,163.58v-117H584.79V28.47h71.56V46.55H630.43v117Z" transform="translate(-42.38 -25.92)"/><path class="cls-1" d="M671.51,163.58V28.47h19.71V163.58Z" transform="translate(-42.38 -25.92)"/><path class="cls-1" d="M780.86,166.13c-37.42,0-69.19-32.13-69.19-68.64,0-41.45,31.77-71.57,69.74-71.57,40.17,0,70.84,31.58,70.84,69.19C852.25,136,820.67,166.13,780.86,166.13Zm51.67-69.74c0-27.93-21.18-52.4-49.66-52.4-36.51,0-51.48,31.41-51.48,51.49,0,27.2,19.72,52.58,50.57,52.58C813.91,148.06,832.53,121,832.53,96.39Z" transform="translate(-42.38 -25.92)"/><path class="cls-1" d="M959.78,163.58,893,59.15h-.36V163.58H872.88V28.47h21.54l65.73,102.79h.36V28.47h19.72V163.58Z" transform="translate(-42.38 -25.92)"/><path class="cls-1" d="M79.72,242.71c-1.81,10.36-7.52,17.12-16.93,17.12-14.36,0-19.3-14.55-19.3-26.34,0-16.17,7.79-26.54,18.92-26.54,9.89,0,16.17,6.76,16.93,17.6H76.86c-1.61-12.46-8.46-15.12-14.26-15.12-4.66,0-8.94,1.52-12.08,6.75-3,5-4.37,10.08-4.37,17.21,0,14.26,6.09,24,16.64,24,7.89,0,12.93-5.51,14.45-14.64Z" transform="translate(-42.38 -25.92)"/><path class="cls-1" d="M102.92,208.19h2.66c0,6.28,0,9.51-.29,13.12,2.86-12.07,10.65-14.16,13.79-14.36v2.48h-.47c-4.09,0-13,6.18-13,23.68v25.48h-2.66Z" transform="translate(-42.38 -25.92)"/><path class="cls-1" d="M139.34,233.68c0,14,6.08,23.67,16.64,23.67,7.89,0,12.93-5.51,14.45-12.36h2.47a20.36,20.36,0,0,1-5.61,10.46A16,16,0,0,1,156,259.83c-14.36,0-19.31-14.36-19.31-26.34,0-16.36,8-26.54,18.93-26.54a15.58,15.58,0,0,1,12.83,6.47c4.28,5.71,5.14,13.31,5.14,20.26Zm31.57-2.48c-.38-15.12-7.14-21.77-15.79-21.77-9.32,0-15.5,9.89-15.78,21.77Z" transform="translate(-42.38 -25.92)"/><path class="cls-1" d="M230.72,258.59h-2.67c0-6.28,0-9.7.19-12.65-2.28,8.56-8.08,13.89-15.5,13.89-10.74,0-17.59-12-17.59-26.34,0-14.65,6.85-26.54,17.59-26.54,6.57,0,12.27,3.62,15.5,13.89-.19-3.9-.19-7.51-.19-12.65h2.67Zm-32.91-25.1c0,11.6,5,23.86,15.12,23.86,5,0,8.85-3,11.32-7.6s3.8-10.56,3.8-16.36-1.23-11.89-3.8-16.36-6.28-7.6-11.32-7.6c-10.08,0-15.12,12.26-15.12,24Z" transform="translate(-42.38 -25.92)"/><path class="cls-1" d="M261.43,210.66h-8.08v-2.47h8.08v-20h2.66v20h8.08v2.47h-8.08v47.93h-2.66Z" transform="translate(-42.38 -25.92)"/><path class="cls-1" d="M295.28,188.22h2.66v8.56h-2.66Zm0,20h2.66v50.4h-2.66Z" transform="translate(-42.38 -25.92)"/><path class="cls-1" d="M338.07,258.59h-3.23l-15.69-50.4h2.75l14.55,48.21,14.74-48.21h2.57Z" transform="translate(-42.38 -25.92)"/><path class="cls-1" d="M373.82,233.68c0,14,6.09,23.67,16.64,23.67,7.9,0,12.94-5.51,14.46-12.36h2.47a20.51,20.51,0,0,1-5.61,10.46,16,16,0,0,1-11.32,4.38c-14.36,0-19.3-14.36-19.3-26.34,0-16.36,8-26.54,18.92-26.54a15.61,15.61,0,0,1,12.84,6.47c4.28,5.71,5.14,13.31,5.14,20.26Zm31.57-2.48c-.38-15.12-7.13-21.77-15.78-21.77-9.32,0-15.5,9.89-15.79,21.77Z" transform="translate(-42.38 -25.92)"/><path class="cls-1" d="M470.81,210.66h-8.08v-2.47h8.08v-20h2.66v20h8.09v2.47h-8.09v47.93h-2.66Z" transform="translate(-42.38 -25.92)"/><path class="cls-1" d="M502.57,233.68c0,14,6.09,23.67,16.64,23.67,7.89,0,12.93-5.51,14.45-12.36h2.48a20.51,20.51,0,0,1-5.61,10.46,16.07,16.07,0,0,1-11.32,4.38c-14.36,0-19.3-14.36-19.3-26.34,0-16.36,8-26.54,18.92-26.54a15.61,15.61,0,0,1,12.84,6.47c4.28,5.71,5.13,13.31,5.13,20.26Zm31.57-2.48c-.38-15.12-7.13-21.77-15.79-21.77-9.31,0-15.5,9.89-15.78,21.77Z" transform="translate(-42.38 -25.92)"/><path class="cls-1" d="M594.62,242.71c-1.81,10.36-7.52,17.12-16.93,17.12-14.36,0-19.3-14.55-19.3-26.34,0-16.17,7.79-26.54,18.92-26.54,9.89,0,16.16,6.76,16.92,17.6h-2.47c-1.61-12.46-8.46-15.12-14.26-15.12-4.66,0-8.94,1.52-12.08,6.75-3,5-4.37,10.08-4.37,17.21,0,14.26,6.08,24,16.64,24,7.89,0,12.93-5.51,14.45-14.64Z" transform="translate(-42.38 -25.92)"/><path class="cls-1" d="M617.81,188.22h2.67v20c0,3.62,0,6.94-.29,11,2.95-9.32,10.08-12.27,16.45-12.27,4.57,0,8.56,1.53,11.32,4.66,3.14,3.52,4,8.47,4,16.08v30.9h-2.66V228.45c0-7-.48-11.42-3.14-15s-7.22-4-9.41-4a13.63,13.63,0,0,0-12.08,5.8c-2.85,3.9-4.18,8.18-4.18,18.16v25.2h-2.67Z" transform="translate(-42.38 -25.92)"/><path class="cls-1" d="M679.15,208.19h2.66c0,3.62,0,6.94-.29,11A17.08,17.08,0,0,1,698,207c9,0,15.31,5.33,15.31,18.74v32.9h-2.67v-32c0-6.18-.66-17.11-12.55-17.11-9.89,0-16.26,7.32-16.26,21.77v27.39h-2.66Z" transform="translate(-42.38 -25.92)"/><path class="cls-1" d="M737.63,233.3c0-14.27,5.8-26.35,19.49-26.35s19.4,12.08,19.4,26.44-5.8,26.44-19.4,26.44-19.49-12.08-19.49-26.44Zm2.66.19c0,14.26,5.51,23.86,16.83,23.86s16.74-9.6,16.74-24-5.52-24-16.74-24-16.83,9.6-16.83,24Z" transform="translate(-42.38 -25.92)"/><path class="cls-1" d="M801.71,188.22h2.67v70.37h-2.67Z" transform="translate(-42.38 -25.92)"/><path class="cls-1" d="M829.57,233.3c0-14.27,5.81-26.35,19.5-26.35s19.4,12.08,19.4,26.44-5.8,26.44-19.4,26.44-19.5-12.08-19.5-26.44Zm2.67.19c0,14.26,5.51,23.86,16.83,23.86s16.74-9.6,16.74-24-5.52-24-16.74-24-16.83,9.6-16.83,24Z" transform="translate(-42.38 -25.92)"/><path class="cls-1" d="M925.9,257.35c0,8.37-1.42,13.22-4,16.55-3.24,4.18-7.8,6.18-13.51,6.18-4.66,0-16.35-2.76-16.73-17h2.47c.29,4.56,1.24,7.42,3.61,10.08a14.7,14.7,0,0,0,11,4.47c5.33,0,14.46-1.9,14.46-18.73,0-3.24,0-8.09.19-12.94-2.28,8.56-8.08,13.89-15.5,13.89-10.75,0-17.59-12-17.59-26.34,0-14.65,6.84-26.54,17.59-26.54,6.56,0,12.27,3.62,15.5,13.89-.19-3.9-.19-7.51-.19-12.65h2.66ZM893,233.49c0,11.6,5,23.86,15.12,23.86,5,0,8.84-3,11.32-7.6s3.8-10.56,3.8-16.36S922,221.5,919.44,217s-6.28-7.6-11.32-7.6c-10.08,0-15.12,12.26-15.12,24Z" transform="translate(-42.38 -25.92)"/><path class="cls-1" d="M962.6,258.59l-15.12-50.4h2.76l13.69,47.07,15.12-47.07h2.57l-23.2,70.66h-2.57Z" transform="translate(-42.38 -25.92)"/></svg>