<svg id="Layer_1" data-name="Layer 1" xmlns="http://www.w3.org/2000/svg" viewBox="0 0 937.85 140.21"><defs><style>.cls-1{fill:#fff;}</style></defs><path class="cls-1" d="M43.28,166.64V31.53H63v117h46.92v18.08Z" transform="translate(-43.28 -28.98)"/><path class="cls-1" d="M123.61,166.64V31.53h19.71V166.64Z" transform="translate(-43.28 -28.98)"/><path class="cls-1" d="M213.43,166.64,159,31.53H180.2l39.25,101.33L258.71,31.53h20.81L225.3,166.64Z" transform="translate(-43.28 -28.98)"/><path class="cls-1" d="M295.4,166.64V31.53h19.72V166.64Z" transform="translate(-43.28 -28.98)"/><path class="cls-1" d="M466.29,133.23c-13.7,23.55-35.42,36-62.44,36-37.43,0-68.29-33.59-68.29-69.56C335.56,58.92,367.7,29,404,29,429.59,29,453.51,40.66,467.2,66H443.46c-10.22-11.87-22.09-19-38-19-28.3,0-50.21,23.92-50.21,50.76,0,28.3,21.36,53.31,49.11,53.31,14.06,0,26.66-5.48,37.61-17.89Z" transform="translate(-43.28 -28.98)"/><path class="cls-1" d="M565.79,166.64l-15-39.8H502.25l-15,39.8H466.47l51.3-135.11h17.71l51.3,135.11ZM526.9,57.09h-.37l-17.34,51.67h34.87Z" transform="translate(-43.28 -28.98)"/><path class="cls-1" d="M611.61,166.64v-117H585.69V31.53h71.56V49.61H631.33v117Z" transform="translate(-43.28 -28.98)"/><path class="cls-1" d="M672.41,166.64V31.53h19.71V166.64Z" transform="translate(-43.28 -28.98)"/><path class="cls-1" d="M781.76,169.19c-37.42,0-69.19-32.13-69.19-68.64C712.57,59.1,744.34,29,782.31,29c40.17,0,70.84,31.58,70.84,69.19C853.15,139.07,821.57,169.19,781.76,169.19Zm51.67-69.74c0-27.93-21.18-52.4-49.66-52.4-36.51,0-51.48,31.4-51.48,51.49,0,27.2,19.72,52.58,50.57,52.58C814.81,151.12,833.43,124.1,833.43,99.45Z" transform="translate(-43.28 -28.98)"/><path class="cls-1" d="M960.68,166.64,893.86,62.21h-.36V166.64H873.78V31.53h21.54l65.73,102.79h.36V31.53h19.72V166.64Z" transform="translate(-43.28 -28.98)"/></svg>